<svg xmlns="http://www.w3.org/2000/svg" viewBox="0 0 512 512" width="512" height="512">
  <defs>
    <linearGradient id="bgGradient" x1="0%" y1="0%" x2="100%" y2="100%">
      <stop offset="0%" style="stop-color:#228be6;stop-opacity:1" />
      <stop offset="100%" style="stop-color:#339af0;stop-opacity:1" />
    </linearGradient>
  </defs>

  <!-- 배경 원 -->
  <circle cx="256" cy="256" r="240" fill="url(#bgGradient)" stroke="#fff" stroke-width="16"/>

  <!-- 일기장 -->
  <rect x="140" y="120" width="200" height="260" rx="20" fill="#fff" stroke="#e9ecef" stroke-width="4"/>

  <!-- 일기장 선 -->
  <line x1="170" y1="160" x2="310" y2="160" stroke="#ced4da" stroke-width="3" stroke-linecap="round"/>
  <line x1="170" y1="190" x2="290" y2="190" stroke="#ced4da" stroke-width="3" stroke-linecap="round"/>
  <line x1="170" y1="220" x2="310" y2="220" stroke="#ced4da" stroke-width="3" stroke-linecap="round"/>
  <line x1="170" y1="250" x2="270" y2="250" stroke="#ced4da" stroke-width="3" stroke-linecap="round"/>

  <!-- 하트 (감정) -->
  <path d="M 225 280 C 215 270, 195 270, 185 280 C 175 290, 175 310, 195 330 L 225 360 L 255 330 C 275 310, 275 290, 265 280 C 255 270, 235 270, 225 280 Z" fill="#ff6b6b"/>

  <!-- 펜 -->
  <rect x="320" y="180" width="8" height="60" rx="4" fill="#ffd43b" transform="rotate(45 324 210)"/>
  <polygon points="334,190 340,196 345,191 339,185" fill="#fab005" transform="rotate(45 340 190)"/>
</svg>